<svg xmlns="http://www.w3.org/2000/svg" xmlns:xlink="http://www.w3.org/1999/xlink" width="200" height="200" class="icon" p-id="2551" t="1484245485871" version="1.1" viewBox="0 0 1024 1024"><defs><style type="text/css"/></defs><path d="M912 480a80 80 0 0 1 48-73.248V320a64 64 0 0 0-64-64H128a64 64 0 0 0-64 64v86.752a80 80 0 0 1 0 146.496V768h59.744v-64h59.712v64H243.2v-64h59.744v64h59.744v-64H422.4v64h59.744v-64h59.744v64H601.6v-64h59.744v64h59.744v-64H780.8v64h59.744v-64h59.744v64H960v-214.752A80 80 0 0 1 912 480zM352 544a32 32 0 0 1-32 32H224a32 32 0 0 1-32-32v-128a32 32 0 0 1 32-32h96a32 32 0 0 1 32 32z m240 0a32 32 0 0 1-32 32h-96a32 32 0 0 1-32-32v-128a32 32 0 0 1 32-32h96a32 32 0 0 1 32 32z m240 0a32 32 0 0 1-32 32h-96a32 32 0 0 1-32-32v-128a32 32 0 0 1 32-32h96a32 32 0 0 1 32 32z" p-id="2552"/></svg>