<svg xmlns="http://www.w3.org/2000/svg" xmlns:xlink="http://www.w3.org/1999/xlink" width="200" height="200" class="icon" p-id="9076" t="1487924054337" version="1.1" viewBox="0 0 1024 1024"><defs><style type="text/css"/></defs><path fill="#040000" d="M932 232H792V120c0-30.9-25.1-56-56-56H288c-30.9 0-56 25.1-56 56v112H92c-15.5 0-28 12.5-28 28s12.5 28 28 28h840c15.5 0 28-12.5 28-28s-12.5-28-28-28z m-644 0v-84c0-15.5 12.5-28 28-28h392c15.5 0 28 12.5 28 28v84H288zM456 764V428c0-15.5-12.5-28-28-28s-28 12.5-28 28v336c0 15.5 12.5 28 28 28s28-12.5 28-28zM624 764V428c0-15.5-12.5-28-28-28s-28 12.5-28 28v336c0 15.5 12.5 28 28 28s28-12.5 28-28z" p-id="9077"/><path fill="#040000" d="M820 344c-15.5 0-28 12.5-28 28v504c0 15.5-12.5 28-28 28H260c-15.5 0-28-12.5-28-28V372c0-15.5-12.5-28-28-28s-28 12.5-28 28v532c0 30.9 25.1 56 56 56h560c30.9 0 56-25.1 56-56V372c0-15.5-12.5-28-28-28z" p-id="9078"/></svg>