<svg xmlns="http://www.w3.org/2000/svg" xmlns:xlink="http://www.w3.org/1999/xlink" id="图层_1" x="0" y="0" version="1.1" viewBox="0 0 200 200" style="enable-background:new 0 0 200 200" xml:space="preserve"><style type="text/css">.st0{fill:#555}.st1{fill:#fff}</style><g><circle cx="100" cy="100" r="100" class="st0"/><path d="M62.5,112.5h25v25c0,6.9,5.6,12.5,12.5,12.5c6.9,0,12.5-5.6,12.5-12.5v-25h25c6.9,0,12.5-5.6,12.5-12.5 c0-6.9-5.6-12.5-12.5-12.5h-25v-25c0-6.9-5.6-12.5-12.5-12.5c-6.9,0-12.5,5.6-12.5,12.5v25h-25C55.6,87.5,50,93.1,50,100 C50,106.9,55.6,112.5,62.5,112.5z" class="st1"/></g></svg>