<svg xmlns="http://www.w3.org/2000/svg" xmlns:xlink="http://www.w3.org/1999/xlink" id="图层_1" x="0" y="0" version="1.1" viewBox="0 0 200 200" style="enable-background:new 0 0 200 200" xml:space="preserve"><style type="text/css">.st0{opacity:.5;fill:#00a8c6}</style><path d="M12.2,175.4L30.3,64.3c0.3-1.9,2.1-3.3,3.9-3.3h139.4V44.4c0-1.9-1.4-3.3-3.3-3.3H86.4L71.7,23.5H4.4	c-1.9,0-3.3,1.4-3.3,3.3l0,145.3c0,1.9,1.4,3.3,3.3,3.3H12.2z" class="st0"/><path d="M195,74.6H44.5c-1.8,0-3.5,1.4-3.7,3.2l-17.1,94.5c-0.3,1.8,0.9,3.2,2.6,3.2h150.5c1.8,0,3.5-1.4,3.7-3.2	l17.1-94.5C198,76.2,196.8,74.6,195,74.6z" class="st0"/></svg>